# Blender v2.76 (sub 0) OBJ File: 'road1.blend'
# www.blender.org
v 2.000000 -2.695060 -0.000534
v -2.000000 -1.783343 -0.039311
v 2.000000 -1.783343 -0.039311
v -2.000000 -2.695060 -0.116350
v 2.000000 -2.695060 -0.116350
v 2.000000 -4.001012 -0.000534
v -2.000000 -4.001012 -0.000534
v -2.000000 -2.695060 -0.000534
v -2.000000 0.000000 0.000000
v -2.000000 2.695060 -0.000534
v 2.000000 0.000000 0.000000
v -2.000000 1.783343 -0.039311
v 2.000000 1.783343 -0.039311
v 2.000000 2.695060 -0.116350
v 2.000000 4.001012 -0.000534
v -2.000000 4.001012 -0.000534
v 2.000000 2.695060 -0.000534
v -2.000000 2.695060 -0.116350
v -2.000000 -2.695060 -0.116350
v 2.000000 -2.695060 -0.116350
v -2.000000 -2.695060 -0.000534
v 2.000000 -2.695060 -0.000534
v -2.000000 2.695060 -0.000534
v 2.000000 2.695060 -0.000534
v -2.000000 2.695060 -0.116350
v 2.000000 2.695060 -0.116350
vt 0.640809 0.999391
vt 0.640679 0.000144
vt 0.426707 0.000174
vt 0.426837 0.999420
vt 0.000099 0.000232
vt 0.664999 0.999387
vt 0.664870 0.000140
vt 0.999901 0.999345
vt 0.999773 0.000099
vt 0.000228 0.999478
vn 0.000000 -0.084200 0.996400
vn 0.000000 -0.053100 0.998600
vn 0.000000 0.000000 1.000000
vn 0.000000 1.000000 0.000000
vn 0.000000 0.053100 0.998600
vn 0.000000 -1.000000 0.000000
vn 0.000000 0.084200 0.996400
s 1
f 19/1/1 20/2/1 3/3/2
f 2/4/2 3/3/2 11/5/3
f 8/6/4 22/7/4 5/2/4
f 7/8/3 6/9/3 1/7/3
f 11/5/3 13/3/5 12/4/5
f 14/2/6 17/7/6 23/6/6
f 24/7/3 15/9/3 16/8/3
f 13/3/5 26/2/7 18/1/7
f 2/4/2 19/1/1 3/3/2
f 9/10/3 2/4/2 11/5/3
f 4/1/4 8/6/4 5/2/4
f 21/6/3 7/8/3 1/7/3
f 9/10/3 11/5/3 12/4/5
f 25/1/6 14/2/6 23/6/6
f 10/6/3 24/7/3 16/8/3
f 12/4/5 13/3/5 18/1/7
